<mxfile host="app.diagrams.net" modified="2023-10-07T14:43:22.478Z" agent="Mozilla/5.0 (Macintosh; Intel Mac OS X 10_15_7) AppleWebKit/605.1.15 (KHTML, like Gecko) Version/17.0 Safari/605.1.15" etag="yvS8J_5WXuTsFbm4z3qA" version="22.0.3" type="device">
  <diagram name="Page-1" id="UqVrwzHWl2GHEcBXxez4">
    <mxGraphModel dx="1207" dy="847" grid="1" gridSize="10" guides="1" tooltips="1" connect="1" arrows="1" fold="1" page="1" pageScale="1" pageWidth="1100" pageHeight="1700" math="0" shadow="0">
      <root>
        <mxCell id="0" />
        <mxCell id="1" parent="0" />
        <mxCell id="txtTi3-NWhlHxe_iq4ro-22" value="" style="rounded=0;whiteSpace=wrap;html=1;" vertex="1" parent="1">
          <mxGeometry x="140" y="50" width="660" height="1410" as="geometry" />
        </mxCell>
        <mxCell id="txtTi3-NWhlHxe_iq4ro-12" style="rounded=0;orthogonalLoop=1;jettySize=auto;html=1;exitX=1;exitY=0.3333333333333333;exitDx=0;exitDy=0;exitPerimeter=0;entryX=0;entryY=0.5;entryDx=0;entryDy=0;endArrow=none;endFill=0;" edge="1" parent="1" source="txtTi3-NWhlHxe_iq4ro-1" target="txtTi3-NWhlHxe_iq4ro-3">
          <mxGeometry relative="1" as="geometry" />
        </mxCell>
        <mxCell id="txtTi3-NWhlHxe_iq4ro-13" style="rounded=0;orthogonalLoop=1;jettySize=auto;html=1;exitX=1;exitY=0.3333333333333333;exitDx=0;exitDy=0;exitPerimeter=0;entryX=0;entryY=0.5;entryDx=0;entryDy=0;endArrow=none;endFill=0;" edge="1" parent="1" source="txtTi3-NWhlHxe_iq4ro-1" target="txtTi3-NWhlHxe_iq4ro-4">
          <mxGeometry relative="1" as="geometry" />
        </mxCell>
        <mxCell id="txtTi3-NWhlHxe_iq4ro-14" style="rounded=0;orthogonalLoop=1;jettySize=auto;html=1;exitX=1;exitY=0.3333333333333333;exitDx=0;exitDy=0;exitPerimeter=0;entryX=0;entryY=0.5;entryDx=0;entryDy=0;endArrow=none;endFill=0;" edge="1" parent="1" source="txtTi3-NWhlHxe_iq4ro-1" target="txtTi3-NWhlHxe_iq4ro-5">
          <mxGeometry relative="1" as="geometry" />
        </mxCell>
        <mxCell id="txtTi3-NWhlHxe_iq4ro-15" style="rounded=0;orthogonalLoop=1;jettySize=auto;html=1;exitX=1;exitY=0.3333333333333333;exitDx=0;exitDy=0;exitPerimeter=0;entryX=0;entryY=0.5;entryDx=0;entryDy=0;endArrow=none;endFill=0;" edge="1" parent="1" source="txtTi3-NWhlHxe_iq4ro-1" target="txtTi3-NWhlHxe_iq4ro-6">
          <mxGeometry relative="1" as="geometry" />
        </mxCell>
        <mxCell id="txtTi3-NWhlHxe_iq4ro-16" style="rounded=0;orthogonalLoop=1;jettySize=auto;html=1;exitX=1;exitY=0.3333333333333333;exitDx=0;exitDy=0;exitPerimeter=0;entryX=0;entryY=0.5;entryDx=0;entryDy=0;endArrow=none;endFill=0;" edge="1" parent="1" source="txtTi3-NWhlHxe_iq4ro-1" target="txtTi3-NWhlHxe_iq4ro-7">
          <mxGeometry relative="1" as="geometry" />
        </mxCell>
        <mxCell id="txtTi3-NWhlHxe_iq4ro-17" style="rounded=0;orthogonalLoop=1;jettySize=auto;html=1;exitX=1;exitY=0.3333333333333333;exitDx=0;exitDy=0;exitPerimeter=0;entryX=0;entryY=0.5;entryDx=0;entryDy=0;endArrow=none;endFill=0;" edge="1" parent="1" source="txtTi3-NWhlHxe_iq4ro-1" target="txtTi3-NWhlHxe_iq4ro-8">
          <mxGeometry relative="1" as="geometry" />
        </mxCell>
        <mxCell id="txtTi3-NWhlHxe_iq4ro-18" style="rounded=0;orthogonalLoop=1;jettySize=auto;html=1;exitX=1;exitY=0.3333333333333333;exitDx=0;exitDy=0;exitPerimeter=0;entryX=0;entryY=0.5;entryDx=0;entryDy=0;endArrow=none;endFill=0;" edge="1" parent="1" source="txtTi3-NWhlHxe_iq4ro-1" target="txtTi3-NWhlHxe_iq4ro-9">
          <mxGeometry relative="1" as="geometry" />
        </mxCell>
        <mxCell id="txtTi3-NWhlHxe_iq4ro-30" style="rounded=0;orthogonalLoop=1;jettySize=auto;html=1;exitX=1;exitY=0.3333333333333333;exitDx=0;exitDy=0;exitPerimeter=0;entryX=0;entryY=0.5;entryDx=0;entryDy=0;endArrow=none;endFill=0;" edge="1" parent="1" source="txtTi3-NWhlHxe_iq4ro-1" target="txtTi3-NWhlHxe_iq4ro-11">
          <mxGeometry relative="1" as="geometry" />
        </mxCell>
        <mxCell id="txtTi3-NWhlHxe_iq4ro-32" style="rounded=0;orthogonalLoop=1;jettySize=auto;html=1;exitX=1;exitY=0.3333333333333333;exitDx=0;exitDy=0;exitPerimeter=0;entryX=0;entryY=0.5;entryDx=0;entryDy=0;endArrow=none;endFill=0;" edge="1" parent="1" source="txtTi3-NWhlHxe_iq4ro-1" target="txtTi3-NWhlHxe_iq4ro-31">
          <mxGeometry relative="1" as="geometry" />
        </mxCell>
        <mxCell id="txtTi3-NWhlHxe_iq4ro-37" style="rounded=0;orthogonalLoop=1;jettySize=auto;html=1;exitX=1;exitY=0.3333333333333333;exitDx=0;exitDy=0;exitPerimeter=0;entryX=0;entryY=0.5;entryDx=0;entryDy=0;endArrow=none;endFill=0;" edge="1" parent="1" source="txtTi3-NWhlHxe_iq4ro-1" target="txtTi3-NWhlHxe_iq4ro-33">
          <mxGeometry relative="1" as="geometry" />
        </mxCell>
        <mxCell id="txtTi3-NWhlHxe_iq4ro-38" style="rounded=0;orthogonalLoop=1;jettySize=auto;html=1;exitX=1;exitY=0.3333333333333333;exitDx=0;exitDy=0;exitPerimeter=0;entryX=0;entryY=0.5;entryDx=0;entryDy=0;endArrow=none;endFill=0;" edge="1" parent="1" source="txtTi3-NWhlHxe_iq4ro-1" target="txtTi3-NWhlHxe_iq4ro-34">
          <mxGeometry relative="1" as="geometry" />
        </mxCell>
        <mxCell id="txtTi3-NWhlHxe_iq4ro-39" style="rounded=0;orthogonalLoop=1;jettySize=auto;html=1;exitX=1;exitY=0.3333333333333333;exitDx=0;exitDy=0;exitPerimeter=0;entryX=0;entryY=0.5;entryDx=0;entryDy=0;endArrow=none;endFill=0;" edge="1" parent="1" source="txtTi3-NWhlHxe_iq4ro-1" target="txtTi3-NWhlHxe_iq4ro-36">
          <mxGeometry relative="1" as="geometry" />
        </mxCell>
        <mxCell id="txtTi3-NWhlHxe_iq4ro-1" value="healthcare&lt;br&gt;provider" style="shape=umlActor;verticalLabelPosition=bottom;verticalAlign=top;html=1;outlineConnect=0;" vertex="1" parent="1">
          <mxGeometry x="70" y="500" width="30" height="60" as="geometry" />
        </mxCell>
        <mxCell id="txtTi3-NWhlHxe_iq4ro-3" value="login" style="ellipse;whiteSpace=wrap;html=1;" vertex="1" parent="1">
          <mxGeometry x="365" y="170" width="120" height="80" as="geometry" />
        </mxCell>
        <mxCell id="txtTi3-NWhlHxe_iq4ro-4" value="add_patient_info" style="ellipse;whiteSpace=wrap;html=1;" vertex="1" parent="1">
          <mxGeometry x="365" y="380" width="120" height="80" as="geometry" />
        </mxCell>
        <mxCell id="txtTi3-NWhlHxe_iq4ro-5" value="view_patient_info" style="ellipse;whiteSpace=wrap;html=1;" vertex="1" parent="1">
          <mxGeometry x="365" y="480" width="120" height="80" as="geometry" />
        </mxCell>
        <mxCell id="txtTi3-NWhlHxe_iq4ro-6" value="list_all_patients_info" style="ellipse;whiteSpace=wrap;html=1;" vertex="1" parent="1">
          <mxGeometry x="365" y="700" width="120" height="80" as="geometry" />
        </mxCell>
        <mxCell id="txtTi3-NWhlHxe_iq4ro-7" value="add_clinical_tests" style="ellipse;whiteSpace=wrap;html=1;" vertex="1" parent="1">
          <mxGeometry x="365" y="810" width="120" height="80" as="geometry" />
        </mxCell>
        <mxCell id="txtTi3-NWhlHxe_iq4ro-8" value="view_clinical_tests" style="ellipse;whiteSpace=wrap;html=1;" vertex="1" parent="1">
          <mxGeometry x="365" y="920" width="120" height="80" as="geometry" />
        </mxCell>
        <mxCell id="txtTi3-NWhlHxe_iq4ro-9" value="delete_patient_info" style="ellipse;whiteSpace=wrap;html=1;" vertex="1" parent="1">
          <mxGeometry x="365" y="1130" width="120" height="80" as="geometry" />
        </mxCell>
        <mxCell id="txtTi3-NWhlHxe_iq4ro-10" value="delete_clinical_tests&lt;br&gt;_data" style="ellipse;whiteSpace=wrap;html=1;" vertex="1" parent="1">
          <mxGeometry x="365" y="1230" width="120" height="80" as="geometry" />
        </mxCell>
        <mxCell id="txtTi3-NWhlHxe_iq4ro-11" value="identify_critical&lt;br&gt;_patients" style="ellipse;whiteSpace=wrap;html=1;" vertex="1" parent="1">
          <mxGeometry x="365" y="1330" width="120" height="80" as="geometry" />
        </mxCell>
        <mxCell id="txtTi3-NWhlHxe_iq4ro-19" style="rounded=0;orthogonalLoop=1;jettySize=auto;html=1;exitX=1;exitY=0.3333333333333333;exitDx=0;exitDy=0;exitPerimeter=0;entryX=0;entryY=0.5;entryDx=0;entryDy=0;endArrow=none;endFill=0;" edge="1" parent="1" source="txtTi3-NWhlHxe_iq4ro-1" target="txtTi3-NWhlHxe_iq4ro-10">
          <mxGeometry relative="1" as="geometry" />
        </mxCell>
        <mxCell id="txtTi3-NWhlHxe_iq4ro-25" style="edgeStyle=orthogonalEdgeStyle;rounded=0;orthogonalLoop=1;jettySize=auto;html=1;exitX=0;exitY=0.3333333333333333;exitDx=0;exitDy=0;exitPerimeter=0;entryX=1;entryY=0.5;entryDx=0;entryDy=0;dashed=1;" edge="1" parent="1" source="txtTi3-NWhlHxe_iq4ro-23" target="txtTi3-NWhlHxe_iq4ro-3">
          <mxGeometry relative="1" as="geometry">
            <Array as="points">
              <mxPoint x="750" y="410" />
              <mxPoint x="750" y="210" />
            </Array>
          </mxGeometry>
        </mxCell>
        <mxCell id="txtTi3-NWhlHxe_iq4ro-23" value="authentication&lt;br&gt;service" style="shape=umlActor;verticalLabelPosition=bottom;verticalAlign=top;html=1;outlineConnect=0;" vertex="1" parent="1">
          <mxGeometry x="850" y="390" width="30" height="60" as="geometry" />
        </mxCell>
        <mxCell id="txtTi3-NWhlHxe_iq4ro-26" style="edgeStyle=orthogonalEdgeStyle;rounded=0;orthogonalLoop=1;jettySize=auto;html=1;exitX=0;exitY=0.3333333333333333;exitDx=0;exitDy=0;exitPerimeter=0;entryX=1;entryY=0.5;entryDx=0;entryDy=0;dashed=1;" edge="1" parent="1" source="txtTi3-NWhlHxe_iq4ro-24" target="txtTi3-NWhlHxe_iq4ro-34">
          <mxGeometry relative="1" as="geometry">
            <Array as="points">
              <mxPoint x="660" y="670" />
              <mxPoint x="660" y="630" />
            </Array>
          </mxGeometry>
        </mxCell>
        <mxCell id="txtTi3-NWhlHxe_iq4ro-29" value="&amp;lt;&amp;lt;include&amp;gt;&amp;gt;" style="edgeLabel;html=1;align=center;verticalAlign=middle;resizable=0;points=[];" vertex="1" connectable="0" parent="txtTi3-NWhlHxe_iq4ro-26">
          <mxGeometry x="0.782" y="4" relative="1" as="geometry">
            <mxPoint x="34" y="-4" as="offset" />
          </mxGeometry>
        </mxCell>
        <mxCell id="txtTi3-NWhlHxe_iq4ro-27" style="edgeStyle=orthogonalEdgeStyle;rounded=0;orthogonalLoop=1;jettySize=auto;html=1;exitX=0;exitY=0.3333333333333333;exitDx=0;exitDy=0;exitPerimeter=0;entryX=1;entryY=0.5;entryDx=0;entryDy=0;dashed=1;" edge="1" parent="1" source="txtTi3-NWhlHxe_iq4ro-24" target="txtTi3-NWhlHxe_iq4ro-7">
          <mxGeometry relative="1" as="geometry">
            <Array as="points">
              <mxPoint x="660" y="670" />
              <mxPoint x="660" y="850" />
            </Array>
          </mxGeometry>
        </mxCell>
        <mxCell id="txtTi3-NWhlHxe_iq4ro-28" value="&amp;lt;&amp;lt;inckude&amp;gt;&amp;gt;" style="edgeLabel;html=1;align=center;verticalAlign=middle;resizable=0;points=[];" vertex="1" connectable="0" parent="txtTi3-NWhlHxe_iq4ro-27">
          <mxGeometry x="0.4723" y="2" relative="1" as="geometry">
            <mxPoint x="-72" y="-2" as="offset" />
          </mxGeometry>
        </mxCell>
        <mxCell id="txtTi3-NWhlHxe_iq4ro-40" style="edgeStyle=orthogonalEdgeStyle;rounded=0;orthogonalLoop=1;jettySize=auto;html=1;exitX=0;exitY=0.3333333333333333;exitDx=0;exitDy=0;exitPerimeter=0;entryX=1;entryY=0.5;entryDx=0;entryDy=0;dashed=1;" edge="1" parent="1" source="txtTi3-NWhlHxe_iq4ro-24" target="txtTi3-NWhlHxe_iq4ro-31">
          <mxGeometry relative="1" as="geometry">
            <Array as="points">
              <mxPoint x="660" y="670" />
              <mxPoint x="660" y="110" />
            </Array>
          </mxGeometry>
        </mxCell>
        <mxCell id="txtTi3-NWhlHxe_iq4ro-41" value="&amp;lt;&amp;lt;include&amp;gt;&amp;gt;" style="edgeLabel;html=1;align=center;verticalAlign=middle;resizable=0;points=[];" vertex="1" connectable="0" parent="txtTi3-NWhlHxe_iq4ro-40">
          <mxGeometry x="0.797" y="1" relative="1" as="geometry">
            <mxPoint x="1" as="offset" />
          </mxGeometry>
        </mxCell>
        <mxCell id="txtTi3-NWhlHxe_iq4ro-42" style="edgeStyle=orthogonalEdgeStyle;rounded=0;orthogonalLoop=1;jettySize=auto;html=1;exitX=0;exitY=0.3333333333333333;exitDx=0;exitDy=0;exitPerimeter=0;entryX=1;entryY=0.5;entryDx=0;entryDy=0;dashed=1;" edge="1" parent="1" source="txtTi3-NWhlHxe_iq4ro-24" target="txtTi3-NWhlHxe_iq4ro-33">
          <mxGeometry relative="1" as="geometry">
            <Array as="points">
              <mxPoint x="660" y="670" />
              <mxPoint x="660" y="320" />
            </Array>
          </mxGeometry>
        </mxCell>
        <mxCell id="txtTi3-NWhlHxe_iq4ro-44" value="&amp;lt;&amp;lt;include&amp;gt;&amp;gt;" style="edgeLabel;html=1;align=center;verticalAlign=middle;resizable=0;points=[];" vertex="1" connectable="0" parent="txtTi3-NWhlHxe_iq4ro-42">
          <mxGeometry x="0.7736" y="1" relative="1" as="geometry">
            <mxPoint as="offset" />
          </mxGeometry>
        </mxCell>
        <mxCell id="txtTi3-NWhlHxe_iq4ro-45" style="edgeStyle=orthogonalEdgeStyle;rounded=0;orthogonalLoop=1;jettySize=auto;html=1;exitX=0;exitY=0.3333333333333333;exitDx=0;exitDy=0;exitPerimeter=0;entryX=1;entryY=0.5;entryDx=0;entryDy=0;dashed=1;" edge="1" parent="1" source="txtTi3-NWhlHxe_iq4ro-24" target="txtTi3-NWhlHxe_iq4ro-36">
          <mxGeometry relative="1" as="geometry">
            <Array as="points">
              <mxPoint x="660" y="670" />
              <mxPoint x="660" y="1060" />
            </Array>
          </mxGeometry>
        </mxCell>
        <mxCell id="txtTi3-NWhlHxe_iq4ro-46" value="&amp;lt;&amp;lt;include&amp;gt;&amp;gt;" style="edgeLabel;html=1;align=center;verticalAlign=middle;resizable=0;points=[];" vertex="1" connectable="0" parent="txtTi3-NWhlHxe_iq4ro-45">
          <mxGeometry x="0.784" relative="1" as="geometry">
            <mxPoint as="offset" />
          </mxGeometry>
        </mxCell>
        <mxCell id="txtTi3-NWhlHxe_iq4ro-24" value="data validation&lt;br&gt;service" style="shape=umlActor;verticalLabelPosition=bottom;verticalAlign=top;html=1;outlineConnect=0;" vertex="1" parent="1">
          <mxGeometry x="850" y="650" width="30" height="60" as="geometry" />
        </mxCell>
        <mxCell id="txtTi3-NWhlHxe_iq4ro-31" value="register" style="ellipse;whiteSpace=wrap;html=1;" vertex="1" parent="1">
          <mxGeometry x="365" y="70" width="120" height="80" as="geometry" />
        </mxCell>
        <mxCell id="txtTi3-NWhlHxe_iq4ro-33" value="edit_profile" style="ellipse;whiteSpace=wrap;html=1;" vertex="1" parent="1">
          <mxGeometry x="365" y="280" width="120" height="80" as="geometry" />
        </mxCell>
        <mxCell id="txtTi3-NWhlHxe_iq4ro-34" value="edit_patient_info" style="ellipse;whiteSpace=wrap;html=1;" vertex="1" parent="1">
          <mxGeometry x="365" y="590" width="120" height="80" as="geometry" />
        </mxCell>
        <mxCell id="txtTi3-NWhlHxe_iq4ro-36" value="edit_clinical_data" style="ellipse;whiteSpace=wrap;html=1;" vertex="1" parent="1">
          <mxGeometry x="365" y="1020" width="120" height="80" as="geometry" />
        </mxCell>
      </root>
    </mxGraphModel>
  </diagram>
</mxfile>
